<svg xmlns="http://www.w3.org/2000/svg" xmlns:xlink="http://www.w3.org/1999/xlink" viewBox="0 0 432.06 423.16"><defs><style>.cls-1{fill:url(#Degradado_sin_nombre_124);}.cls-2{fill:url(#Degradado_sin_nombre_124-2);}.cls-3{fill:url(#Degradado_sin_nombre_124-3);}.cls-4{fill:url(#Degradado_sin_nombre_124-4);}.cls-5{fill:url(#Degradado_sin_nombre_124-5);}.cls-6{fill:url(#Degradado_sin_nombre_124-6);}.cls-7{fill:url(#Degradado_sin_nombre_124-7);}.cls-8{fill:url(#Degradado_sin_nombre_124-8);}.cls-9{fill:url(#Degradado_sin_nombre_124-9);}.cls-10{fill:url(#Degradado_sin_nombre_124-10);}.cls-11{fill:url(#Degradado_sin_nombre_124-11);}.cls-12{fill:url(#Degradado_sin_nombre_124-12);}.cls-13{fill:url(#Degradado_sin_nombre_124-13);}.cls-14{fill:url(#Degradado_sin_nombre_124-14);}.cls-15{fill:url(#Degradado_sin_nombre_124-15);}.cls-16{fill:url(#Degradado_sin_nombre_124-16);}.cls-17{fill:url(#Degradado_sin_nombre_124-17);}.cls-18{fill:url(#Degradado_sin_nombre_124-18);}.cls-19{fill:url(#Degradado_sin_nombre_124-19);}.cls-20{fill:url(#Degradado_sin_nombre_124-20);}.cls-21{fill:url(#Degradado_sin_nombre_124-21);}.cls-22{fill:url(#Degradado_sin_nombre_124-22);}.cls-23{fill:url(#Degradado_sin_nombre_124-23);}.cls-24{fill:url(#Degradado_sin_nombre_124-24);}.cls-25{fill:url(#Degradado_sin_nombre_124-25);}.cls-26{fill:url(#Degradado_sin_nombre_124-26);}.cls-27{fill:url(#Degradado_sin_nombre_124-27);}.cls-28{fill:url(#Degradado_sin_nombre_124-28);}.cls-29{fill:url(#Degradado_sin_nombre_124-29);}.cls-30{fill:url(#Degradado_sin_nombre_124-30);}.cls-31{fill:url(#Degradado_sin_nombre_124-31);}.cls-32{fill:url(#Degradado_sin_nombre_124-32);}.cls-33{fill:url(#Degradado_sin_nombre_124-33);}.cls-34{fill:url(#Degradado_sin_nombre_124-34);}.cls-35{fill:url(#Degradado_sin_nombre_124-35);}.cls-36{fill:url(#Degradado_sin_nombre_124-36);}.cls-37{fill:url(#Degradado_sin_nombre_124-37);}.cls-38{fill:url(#Degradado_sin_nombre_124-38);}.cls-39{fill:url(#Degradado_sin_nombre_124-39);}.cls-40{fill:url(#Degradado_sin_nombre_124-40);}.cls-41{fill:url(#Degradado_sin_nombre_124-41);}.cls-42{fill:url(#Degradado_sin_nombre_124-42);}.cls-43{fill:url(#Degradado_sin_nombre_124-43);}.cls-44{fill:url(#Degradado_sin_nombre_124-44);}.cls-45{fill:url(#Degradado_sin_nombre_124-45);}.cls-46{fill:url(#Degradado_sin_nombre_124-46);}.cls-47{fill:url(#Degradado_sin_nombre_124-47);}.cls-48{fill:url(#Degradado_sin_nombre_124-48);}.cls-49{fill:url(#Degradado_sin_nombre_124-49);}</style><linearGradient id="Degradado_sin_nombre_124" x1="3497.75" y1="-194.54" x2="3463.05" y2="4.38" gradientTransform="translate(-452.37 216.87) scale(0.23 1.29)" gradientUnits="userSpaceOnUse"><stop offset="0" stop-color="#0084e9"/><stop offset="1" stop-color="#bffff5"/></linearGradient><linearGradient id="Degradado_sin_nombre_124-2" x1="3466.62" y1="-194.54" x2="3431.92" y2="4.38" gradientTransform="translate(-450.3 221.87) scale(0.23 1.29)" xlink:href="#Degradado_sin_nombre_124"/><linearGradient id="Degradado_sin_nombre_124-3" x1="3435.49" y1="-194.54" x2="3400.8" y2="4.38" gradientTransform="translate(-448.23 226.87) scale(0.23 1.29)" xlink:href="#Degradado_sin_nombre_124"/><linearGradient id="Degradado_sin_nombre_124-4" x1="3401.25" y1="-195.08" x2="3366.55" y2="3.83" gradientTransform="translate(-446.45 232.58) scale(0.23 1.29)" xlink:href="#Degradado_sin_nombre_124"/><linearGradient id="Degradado_sin_nombre_124-5" x1="3370.13" y1="-195.08" x2="3335.43" y2="3.83" gradientTransform="translate(-444.38 237.58) scale(0.23 1.29)" xlink:href="#Degradado_sin_nombre_124"/><linearGradient id="Degradado_sin_nombre_124-6" x1="3339" y1="-195.08" x2="3304.3" y2="3.83" gradientTransform="translate(-442.31 242.58) scale(0.23 1.29)" xlink:href="#Degradado_sin_nombre_124"/><linearGradient id="Degradado_sin_nombre_124-7" x1="3307.87" y1="-195.08" x2="3273.17" y2="3.83" gradientTransform="translate(-440.24 247.58) scale(0.23 1.29)" xlink:href="#Degradado_sin_nombre_124"/><linearGradient id="Degradado_sin_nombre_124-8" x1="3276.74" y1="-195.08" x2="3242.05" y2="3.83" gradientTransform="translate(-438.17 252.58) scale(0.23 1.29)" xlink:href="#Degradado_sin_nombre_124"/><linearGradient id="Degradado_sin_nombre_124-9" x1="3245.62" y1="-195.08" x2="3210.92" y2="3.83" gradientTransform="translate(-436.1 257.58) scale(0.23 1.29)" xlink:href="#Degradado_sin_nombre_124"/><linearGradient id="Degradado_sin_nombre_124-10" x1="3211.38" y1="-195.63" x2="3176.68" y2="3.28" gradientTransform="translate(-434.32 263.29) scale(0.23 1.29)" xlink:href="#Degradado_sin_nombre_124"/><linearGradient id="Degradado_sin_nombre_124-11" x1="3180.25" y1="-195.63" x2="3145.55" y2="3.28" gradientTransform="translate(-432.25 268.29) scale(0.23 1.29)" xlink:href="#Degradado_sin_nombre_124"/><linearGradient id="Degradado_sin_nombre_124-12" x1="3149.12" y1="-195.63" x2="3114.42" y2="3.28" gradientTransform="translate(-430.18 273.29) scale(0.23 1.29)" xlink:href="#Degradado_sin_nombre_124"/><linearGradient id="Degradado_sin_nombre_124-13" x1="3118" y1="-195.63" x2="3083.3" y2="3.28" gradientTransform="translate(-428.1 278.29) scale(0.23 1.29)" xlink:href="#Degradado_sin_nombre_124"/><linearGradient id="Degradado_sin_nombre_124-14" x1="3086.87" y1="-195.63" x2="3052.17" y2="3.28" gradientTransform="translate(-426.03 283.29) scale(0.23 1.29)" xlink:href="#Degradado_sin_nombre_124"/><linearGradient id="Degradado_sin_nombre_124-15" x1="3055.74" y1="-195.63" x2="3021.04" y2="3.28" gradientTransform="translate(-423.96 288.29) scale(0.23 1.29)" xlink:href="#Degradado_sin_nombre_124"/><linearGradient id="Degradado_sin_nombre_124-16" x1="3021.5" y1="-196.17" x2="2986.8" y2="2.74" gradientTransform="translate(-422.18 293.99) scale(0.23 1.29)" xlink:href="#Degradado_sin_nombre_124"/><linearGradient id="Degradado_sin_nombre_124-17" x1="2990.37" y1="-196.17" x2="2955.67" y2="2.74" gradientTransform="translate(-420.11 298.99) scale(0.23 1.29)" xlink:href="#Degradado_sin_nombre_124"/><linearGradient id="Degradado_sin_nombre_124-18" x1="2959.25" y1="-196.17" x2="2924.55" y2="2.74" gradientTransform="translate(-418.04 303.99) scale(0.23 1.29)" xlink:href="#Degradado_sin_nombre_124"/><linearGradient id="Degradado_sin_nombre_124-19" x1="2928.12" y1="-196.17" x2="2893.42" y2="2.74" gradientTransform="translate(-415.97 308.99) scale(0.23 1.29)" xlink:href="#Degradado_sin_nombre_124"/><linearGradient id="Degradado_sin_nombre_124-20" x1="2896.99" y1="-196.17" x2="2862.29" y2="2.74" gradientTransform="translate(-413.9 313.99) scale(0.23 1.29)" xlink:href="#Degradado_sin_nombre_124"/><linearGradient id="Degradado_sin_nombre_124-21" x1="2865.86" y1="-196.17" x2="2831.16" y2="2.74" gradientTransform="translate(-411.83 318.99) scale(0.23 1.29)" xlink:href="#Degradado_sin_nombre_124"/><linearGradient id="Degradado_sin_nombre_124-22" x1="2831.62" y1="-196.72" x2="2796.92" y2="2.19" gradientTransform="translate(-410.05 324.7) scale(0.23 1.29)" xlink:href="#Degradado_sin_nombre_124"/><linearGradient id="Degradado_sin_nombre_124-23" x1="2800.5" y1="-196.72" x2="2765.8" y2="2.19" gradientTransform="translate(-407.98 329.7) scale(0.23 1.29)" xlink:href="#Degradado_sin_nombre_124"/><linearGradient id="Degradado_sin_nombre_124-24" x1="2769.37" y1="-196.72" x2="2734.67" y2="2.19" gradientTransform="translate(-405.91 334.7) scale(0.23 1.29)" xlink:href="#Degradado_sin_nombre_124"/><linearGradient id="Degradado_sin_nombre_124-25" x1="2732.02" y1="-197.21" x2="2697.32" y2="1.7" gradientTransform="translate(-403.87 340.89) scale(0.23 1.29)" xlink:href="#Degradado_sin_nombre_124"/><linearGradient id="Degradado_sin_nombre_124-26" x1="2700.9" y1="-197.21" x2="2666.2" y2="1.7" gradientTransform="translate(-401.8 345.89) scale(0.23 1.29)" xlink:href="#Degradado_sin_nombre_124"/><linearGradient id="Degradado_sin_nombre_124-27" x1="2669.77" y1="-197.21" x2="2635.07" y2="1.7" gradientTransform="translate(-399.73 350.89) scale(0.23 1.29)" xlink:href="#Degradado_sin_nombre_124"/><linearGradient id="Degradado_sin_nombre_124-28" x1="2635.53" y1="-197.76" x2="2600.83" y2="1.15" gradientTransform="translate(-397.95 356.59) scale(0.23 1.29)" xlink:href="#Degradado_sin_nombre_124"/><linearGradient id="Degradado_sin_nombre_124-29" x1="2604.4" y1="-197.76" x2="2569.7" y2="1.15" gradientTransform="translate(-395.88 361.59) scale(0.23 1.29)" xlink:href="#Degradado_sin_nombre_124"/><linearGradient id="Degradado_sin_nombre_124-30" x1="2573.27" y1="-197.76" x2="2538.57" y2="1.15" gradientTransform="translate(-393.81 366.59) scale(0.23 1.29)" xlink:href="#Degradado_sin_nombre_124"/><linearGradient id="Degradado_sin_nombre_124-31" x1="2542.15" y1="-197.76" x2="2507.45" y2="1.15" gradientTransform="translate(-391.74 371.59) scale(0.23 1.29)" xlink:href="#Degradado_sin_nombre_124"/><linearGradient id="Degradado_sin_nombre_124-32" x1="2511.02" y1="-197.76" x2="2476.32" y2="1.15" gradientTransform="translate(-389.67 376.59) scale(0.23 1.29)" xlink:href="#Degradado_sin_nombre_124"/><linearGradient id="Degradado_sin_nombre_124-33" x1="2479.89" y1="-197.76" x2="2445.19" y2="1.15" gradientTransform="translate(-387.6 381.59) scale(0.23 1.29)" xlink:href="#Degradado_sin_nombre_124"/><linearGradient id="Degradado_sin_nombre_124-34" x1="2445.65" y1="-198.31" x2="2410.95" y2="0.61" gradientTransform="translate(-385.82 387.3) scale(0.23 1.29)" xlink:href="#Degradado_sin_nombre_124"/><linearGradient id="Degradado_sin_nombre_124-35" x1="2414.52" y1="-198.31" x2="2379.82" y2="0.61" gradientTransform="translate(-383.75 392.3) scale(0.23 1.29)" xlink:href="#Degradado_sin_nombre_124"/><linearGradient id="Degradado_sin_nombre_124-36" x1="2383.4" y1="-198.31" x2="2348.7" y2="0.61" gradientTransform="translate(-381.68 397.3) scale(0.23 1.29)" xlink:href="#Degradado_sin_nombre_124"/><linearGradient id="Degradado_sin_nombre_124-37" x1="2352.27" y1="-198.31" x2="2317.57" y2="0.61" gradientTransform="translate(-379.61 402.3) scale(0.23 1.29)" xlink:href="#Degradado_sin_nombre_124"/><linearGradient id="Degradado_sin_nombre_124-38" x1="2321.14" y1="-198.31" x2="2286.44" y2="0.61" gradientTransform="translate(-377.54 407.3) scale(0.23 1.29)" xlink:href="#Degradado_sin_nombre_124"/><linearGradient id="Degradado_sin_nombre_124-39" x1="2290.01" y1="-198.31" x2="2255.32" y2="0.61" gradientTransform="translate(-375.47 412.3) scale(0.23 1.29)" xlink:href="#Degradado_sin_nombre_124"/><linearGradient id="Degradado_sin_nombre_124-40" x1="2255.77" y1="-198.85" x2="2221.07" y2="0.06" gradientTransform="translate(-373.69 418.01) scale(0.23 1.29)" xlink:href="#Degradado_sin_nombre_124"/><linearGradient id="Degradado_sin_nombre_124-41" x1="2224.65" y1="-198.85" x2="2189.95" y2="0.06" gradientTransform="translate(-371.62 423.01) scale(0.23 1.29)" xlink:href="#Degradado_sin_nombre_124"/><linearGradient id="Degradado_sin_nombre_124-42" x1="2193.52" y1="-198.85" x2="2158.82" y2="0.06" gradientTransform="translate(-369.54 428.01) scale(0.23 1.29)" xlink:href="#Degradado_sin_nombre_124"/><linearGradient id="Degradado_sin_nombre_124-43" x1="2162.39" y1="-198.85" x2="2127.69" y2="0.06" gradientTransform="translate(-367.47 433.01) scale(0.23 1.29)" xlink:href="#Degradado_sin_nombre_124"/><linearGradient id="Degradado_sin_nombre_124-44" x1="2131.26" y1="-198.85" x2="2096.57" y2="0.06" gradientTransform="translate(-365.4 438.01) scale(0.23 1.29)" xlink:href="#Degradado_sin_nombre_124"/><linearGradient id="Degradado_sin_nombre_124-45" x1="2100.14" y1="-198.85" x2="2065.44" y2="0.06" gradientTransform="translate(-363.33 443.01) scale(0.23 1.29)" xlink:href="#Degradado_sin_nombre_124"/><linearGradient id="Degradado_sin_nombre_124-46" x1="2065.9" y1="-199.4" x2="2031.2" y2="-0.49" gradientTransform="translate(-361.55 448.72) scale(0.23 1.29)" xlink:href="#Degradado_sin_nombre_124"/><linearGradient id="Degradado_sin_nombre_124-47" x1="2034.77" y1="-199.4" x2="2000.07" y2="-0.49" gradientTransform="translate(-359.48 453.72) scale(0.23 1.29)" xlink:href="#Degradado_sin_nombre_124"/><linearGradient id="Degradado_sin_nombre_124-48" x1="2003.64" y1="-199.4" x2="1968.94" y2="-0.49" gradientTransform="translate(-357.41 458.72) scale(0.23 1.29)" xlink:href="#Degradado_sin_nombre_124"/><linearGradient id="Degradado_sin_nombre_124-49" x1="338.69" y1="50.23" x2="295.32" y2="298.84" gradientTransform="matrix(1, 0, 0, 1, 0, 0)" xlink:href="#Degradado_sin_nombre_124"/></defs><title>abajo</title><g id="Capa_2" data-name="Capa 2"><g id="Capa_1-2" data-name="Capa 1"><rect class="cls-1" x="336.32" y="-36.92" width="3.86" height="261.46" transform="translate(32.74 266.66) rotate(-45)"/><rect class="cls-2" x="331.32" y="-31.92" width="3.86" height="261.46" transform="translate(27.74 264.59) rotate(-45)"/><rect class="cls-3" x="326.32" y="-26.92" width="3.86" height="261.46" transform="translate(22.74 262.52) rotate(-45)"/><rect class="cls-4" x="320.32" y="-21.92" width="3.86" height="261.46" transform="translate(17.45 259.74) rotate(-45)"/><rect class="cls-5" x="315.32" y="-16.92" width="3.86" height="261.46" transform="translate(12.45 257.67) rotate(-45)"/><rect class="cls-6" x="310.32" y="-11.92" width="3.86" height="261.46" transform="translate(7.45 255.6) rotate(-45)"/><rect class="cls-7" x="305.32" y="-6.92" width="3.86" height="261.46" transform="translate(2.45 253.52) rotate(-45)"/><rect class="cls-8" x="300.32" y="-1.92" width="3.86" height="261.46" transform="translate(-2.55 251.45) rotate(-45)"/><rect class="cls-9" x="295.32" y="3.08" width="3.86" height="261.46" transform="translate(-7.55 249.38) rotate(-45)"/><rect class="cls-10" x="289.32" y="8.08" width="3.86" height="261.46" transform="translate(-12.84 246.6) rotate(-45)"/><rect class="cls-11" x="284.32" y="13.08" width="3.86" height="261.46" transform="translate(-17.84 244.53) rotate(-45)"/><rect class="cls-12" x="279.32" y="18.08" width="3.86" height="261.46" transform="translate(-22.84 242.46) rotate(-45)"/><rect class="cls-13" x="274.32" y="23.08" width="3.86" height="261.46" transform="translate(-27.84 240.39) rotate(-45)"/><rect class="cls-14" x="269.32" y="28.08" width="3.86" height="261.46" transform="translate(-32.84 238.32) rotate(-45)"/><rect class="cls-15" x="264.32" y="33.08" width="3.86" height="261.46" transform="translate(-37.84 236.25) rotate(-45)"/><rect class="cls-16" x="258.32" y="38.08" width="3.86" height="261.46" transform="translate(-43.14 233.47) rotate(-45)"/><rect class="cls-17" x="253.32" y="43.08" width="3.86" height="261.46" transform="translate(-48.14 231.4) rotate(-45)"/><rect class="cls-18" x="248.32" y="48.08" width="3.86" height="261.46" transform="translate(-53.14 229.33) rotate(-45)"/><rect class="cls-19" x="243.32" y="53.08" width="3.86" height="261.46" transform="translate(-58.14 227.26) rotate(-45)"/><rect class="cls-20" x="238.32" y="58.08" width="3.86" height="261.46" transform="translate(-63.14 225.19) rotate(-45)"/><rect class="cls-21" x="233.32" y="63.08" width="3.86" height="261.46" transform="translate(-68.14 223.11) rotate(-45)"/><rect class="cls-22" x="227.32" y="68.08" width="3.86" height="261.46" transform="translate(-73.43 220.34) rotate(-45)"/><rect class="cls-23" x="222.32" y="73.08" width="3.86" height="261.46" transform="translate(-78.43 218.27) rotate(-45)"/><rect class="cls-24" x="217.32" y="78.08" width="3.86" height="261.46" transform="translate(-83.43 216.19) rotate(-45)"/><rect class="cls-25" x="210.87" y="83.62" width="3.86" height="261.46" transform="translate(-89.24 213.26) rotate(-45)"/><rect class="cls-26" x="205.87" y="88.62" width="3.86" height="261.46" transform="translate(-94.24 211.19) rotate(-45)"/><rect class="cls-27" x="200.87" y="93.62" width="3.86" height="261.46" transform="translate(-99.24 209.12) rotate(-45)"/><rect class="cls-28" x="194.87" y="98.62" width="3.86" height="261.46" transform="translate(-104.53 206.34) rotate(-45)"/><rect class="cls-29" x="189.87" y="103.62" width="3.86" height="261.46" transform="translate(-109.53 204.27) rotate(-45)"/><rect class="cls-30" x="184.87" y="108.62" width="3.86" height="261.46" transform="translate(-114.53 202.2) rotate(-45)"/><rect class="cls-31" x="179.87" y="113.62" width="3.86" height="261.46" transform="translate(-119.53 200.13) rotate(-45)"/><rect class="cls-32" x="174.87" y="118.62" width="3.86" height="261.46" transform="translate(-124.53 198.06) rotate(-45)"/><rect class="cls-33" x="169.87" y="123.62" width="3.86" height="261.46" transform="translate(-129.53 195.98) rotate(-45)"/><rect class="cls-34" x="163.87" y="128.62" width="3.86" height="261.46" transform="translate(-134.83 193.21) rotate(-45)"/><rect class="cls-35" x="158.87" y="133.62" width="3.86" height="261.46" transform="translate(-139.83 191.13) rotate(-45)"/><rect class="cls-36" x="153.87" y="138.62" width="3.86" height="261.46" transform="translate(-144.83 189.06) rotate(-45)"/><rect class="cls-37" x="148.87" y="143.62" width="3.86" height="261.46" transform="translate(-149.83 186.99) rotate(-45)"/><rect class="cls-38" x="143.87" y="148.62" width="3.86" height="261.46" transform="translate(-154.83 184.92) rotate(-45)"/><rect class="cls-39" x="138.87" y="153.62" width="3.86" height="261.46" transform="translate(-159.83 182.85) rotate(-45)"/><rect class="cls-40" x="132.87" y="158.62" width="3.86" height="261.46" transform="translate(-165.12 180.07) rotate(-45)"/><rect class="cls-41" x="127.87" y="163.62" width="3.86" height="261.46" transform="translate(-170.12 178) rotate(-45)"/><rect class="cls-42" x="122.87" y="168.62" width="3.86" height="261.46" transform="translate(-175.12 175.93) rotate(-45)"/><rect class="cls-43" x="117.87" y="173.62" width="3.86" height="261.46" transform="translate(-180.12 173.86) rotate(-45)"/><rect class="cls-44" x="112.87" y="178.62" width="3.86" height="261.46" transform="translate(-185.12 171.79) rotate(-45)"/><rect class="cls-45" x="107.87" y="183.62" width="3.86" height="261.46" transform="translate(-190.12 169.72) rotate(-45)"/><rect class="cls-46" x="101.87" y="188.62" width="3.86" height="261.46" transform="translate(-195.41 166.94) rotate(-45)"/><rect class="cls-47" x="96.87" y="193.62" width="3.86" height="261.46" transform="translate(-200.41 164.87) rotate(-45)"/><rect class="cls-48" x="91.87" y="198.62" width="3.86" height="261.46" transform="translate(-205.41 162.8) rotate(-45)"/><line class="cls-49" x1="317.51" y1="46.54" x2="316.51" y2="302.54"/></g></g></svg>