<svg id="Capa_1" data-name="Capa 1" xmlns="http://www.w3.org/2000/svg" xmlns:xlink="http://www.w3.org/1999/xlink" viewBox="0 0 1367 773.74"><defs><style>.cls-1,.cls-2,.cls-3,.cls-4{stroke:#fff;}.cls-1,.cls-10,.cls-2,.cls-3,.cls-4,.cls-5,.cls-6,.cls-7,.cls-8,.cls-9{stroke-miterlimit:10;}.cls-1{fill:url(#Degradado_sin_nombre_6);}.cls-2{fill:url(#Degradado_sin_nombre_5);}.cls-11,.cls-3,.cls-4{fill:none;}.cls-4{stroke-dasharray:12 12;}.cls-10,.cls-5,.cls-6,.cls-7,.cls-8,.cls-9{fill:#fff;}.cls-5{stroke:url(#Degradado_sin_nombre_9);}.cls-6{stroke:url(#Degradado_sin_nombre_9-2);}.cls-7{stroke:url(#Degradado_sin_nombre_9-3);}.cls-8{stroke:url(#Degradado_sin_nombre_9-4);}.cls-9{stroke:url(#Degradado_sin_nombre_9-5);}.cls-10{stroke:url(#Degradado_sin_nombre_9-6);}</style><linearGradient id="Degradado_sin_nombre_6" x1="474.3" y1="593.22" x2="1035.14" y2="250.65" gradientUnits="userSpaceOnUse"><stop offset="0" stop-color="#0e3f5e"/><stop offset="0.02" stop-color="#0f4264"/><stop offset="0.11" stop-color="#145181"/><stop offset="0.21" stop-color="#175e99"/><stop offset="0.32" stop-color="#1a67ab"/><stop offset="0.46" stop-color="#1c6eb8"/><stop offset="0.63" stop-color="#1e72c0"/><stop offset="1" stop-color="#1e73c2"/></linearGradient><linearGradient id="Degradado_sin_nombre_5" x1="606.5" y1="384.5" x2="1366" y2="384.5" gradientUnits="userSpaceOnUse"><stop offset="0" stop-color="#0e3f5e"/><stop offset="0.16" stop-color="#124d79"/><stop offset="0.39" stop-color="#175e99"/><stop offset="0.61" stop-color="#1b69b0"/><stop offset="0.82" stop-color="#1d71bd"/><stop offset="1" stop-color="#1e73c2"/></linearGradient><linearGradient id="Degradado_sin_nombre_9" x1="498.14" y1="273.14" x2="539.86" y2="314.86" gradientTransform="translate(-55.88 453.1) rotate(-45)" xlink:href="#Degradado_sin_nombre_6"/><linearGradient id="Degradado_sin_nombre_9-2" x1="1162.14" y1="187.14" x2="1203.86" y2="228.86" gradientTransform="translate(199.41 897.43) rotate(-45)" xlink:href="#Degradado_sin_nombre_6"/><linearGradient id="Degradado_sin_nombre_9-3" x1="1055.14" y1="386.14" x2="1096.86" y2="427.86" gradientTransform="translate(27.36 880.05) rotate(-45)" xlink:href="#Degradado_sin_nombre_6"/><linearGradient id="Degradado_sin_nombre_9-4" x1="1216.14" y1="257.14" x2="1257.86" y2="298.86" gradientTransform="matrix(0.41, -0.37, 0.41, 0.37, 608.69, 651.85)" xlink:href="#Degradado_sin_nombre_6"/><linearGradient id="Degradado_sin_nombre_9-5" x1="1048.98" y1="791.21" x2="1087.32" y2="829.54" gradientTransform="matrix(0.68, -0.01, -0.01, 0.68, 322.48, 223.86)" xlink:href="#Degradado_sin_nombre_6"/><linearGradient id="Degradado_sin_nombre_9-6" x1="622.14" y1="44.14" x2="663.86" y2="85.86" gradientTransform="translate(142.37 473.71) rotate(-45)" xlink:href="#Degradado_sin_nombre_6"/></defs><title>a</title><path class="cls-1" d="M266.5.5,454.7,120.6a152.51,152.51,0,0,1,54.37,196.76L457.88,419.74a64.84,64.84,0,0,0,9,71.49l44.31,51.06A64.84,64.84,0,0,0,588,558.37l44-20.88A64.85,64.85,0,0,1,713.64,560h0a64.84,64.84,0,0,1-8.28,82.23l-7.82,7.72A64.83,64.83,0,0,0,689.17,732l24.33,36.5h652V.5Z" transform="translate(0.5)"/><path class="cls-2" d="M1030.61,768.5,958.92,633.12c-27.47-51.89-5.59-116.78,47.27-140.17h0c53.6-23.71,75.2-89.94,46.3-142l-.75-1.33c-25.18-45.33-80-63.34-126.17-41.45l-31.79,15.08c-45.73,21.68-100,4.25-125.54-40.31L606.5.5H1366v768Z" transform="translate(0.5)"/><line class="cls-3" x1="971" y1="773.5" x2="968.14" y2="768.23"/><path class="cls-4" d="M961.91,757.68,897,638.12A100.45,100.45,0,0,1,945.45,498h0a100.45,100.45,0,0,0,47.49-142l-.76-1.33a100.45,100.45,0,0,0-129.42-41.45l-32.61,15.08A100.44,100.44,0,0,1,701.39,288L541.58,15.85" transform="translate(0.5)"/><line class="cls-3" x1="539.04" y1="10.67" x2="536" y2="5.5"/><rect class="cls-5" x="490" y="265" width="58" height="58" rx="11.23" transform="translate(360.4 -280.88) rotate(45)"/><rect class="cls-6" x="1154" y="179" width="58" height="58" rx="11.23" transform="translate(494.07 -775.59) rotate(45)"/><rect class="cls-7" x="1047" y="378" width="58" height="58" rx="29" transform="translate(603.45 -641.64) rotate(45)"/><rect class="cls-8" x="1218.78" y="281.05" width="33.95" height="30.41" rx="5.21" transform="translate(571.93 -787.04) rotate(45)"/><path class="cls-9" d="M1017.16,768a11.22,11.22,0,0,1,3.28-7.46l12.12-12.12a11.24,11.24,0,0,1,15.88,0l11.62,11.62a11.19,11.19,0,0,1,3.29,8.2" transform="translate(0.5)"/><rect class="cls-10" x="614" y="36" width="58" height="58" rx="11.23" transform="translate(234.79 -435.63) rotate(45)"/><rect class="cls-11" y="725.5" width="38" height="43"/></svg>