<svg id="Capa_1" data-name="Capa 1" xmlns="http://www.w3.org/2000/svg" xmlns:xlink="http://www.w3.org/1999/xlink" viewBox="0 0 768.11 1025.5"><defs><style>.cls-1,.cls-2,.cls-3,.cls-4,.cls-5,.cls-6,.cls-7{stroke-miterlimit:10;}.cls-1{stroke-dasharray:12;fill:url(#Degradado_sin_nombre_10);stroke:url(#Degradado_sin_nombre_4);}.cls-2,.cls-3,.cls-4,.cls-5,.cls-6,.cls-7,.cls-8{fill:#fff;}.cls-2{stroke:url(#Degradado_sin_nombre_9);}.cls-3{stroke:url(#Degradado_sin_nombre_9-2);}.cls-4{stroke:url(#Degradado_sin_nombre_9-3);}.cls-5{stroke:url(#Degradado_sin_nombre_9-4);}.cls-6{stroke:url(#Degradado_sin_nombre_9-5);}.cls-7{stroke:url(#Degradado_sin_nombre_9-6);}</style><linearGradient id="Degradado_sin_nombre_10" x1="347.3" y1="634.36" x2="835.83" y2="272" gradientUnits="userSpaceOnUse"><stop offset="0" stop-color="#1b6ab0"/><stop offset="1" stop-color="#124e7a"/></linearGradient><radialGradient id="Degradado_sin_nombre_4" cx="534.1" cy="439.66" r="352.77" gradientTransform="translate(59.69 0.08) scale(0.92 1.16)" gradientUnits="userSpaceOnUse"><stop offset="0" stop-color="#fff"/><stop offset="1"/></radialGradient><linearGradient id="Degradado_sin_nombre_9" x1="438.96" y1="256.26" x2="480.68" y2="297.98" gradientTransform="translate(-61.27 406.31) rotate(-45)" gradientUnits="userSpaceOnUse"><stop offset="0" stop-color="#0e3f5e"/><stop offset="0.02" stop-color="#0f4264"/><stop offset="0.11" stop-color="#145181"/><stop offset="0.21" stop-color="#175e99"/><stop offset="0.32" stop-color="#1a67ab"/><stop offset="0.46" stop-color="#1c6eb8"/><stop offset="0.63" stop-color="#1e72c0"/><stop offset="1" stop-color="#1e73c2"/></linearGradient><linearGradient id="Degradado_sin_nombre_9-2" x1="458.34" y1="700.73" x2="500.06" y2="742.45" gradientTransform="translate(-369.89 550.19) rotate(-45)" xlink:href="#Degradado_sin_nombre_9"/><linearGradient id="Degradado_sin_nombre_9-3" x1="597.22" y1="488.81" x2="638.94" y2="530.53" gradientTransform="translate(-179.36 586.33) rotate(-45)" xlink:href="#Degradado_sin_nombre_9"/><linearGradient id="Degradado_sin_nombre_9-4" x1="634.02" y1="281.86" x2="675.74" y2="323.58" gradientTransform="translate(-22.24 551.74) rotate(-45)" xlink:href="#Degradado_sin_nombre_9"/><linearGradient id="Degradado_sin_nombre_9-5" x1="506.27" y1="347.73" x2="547.99" y2="389.45" gradientTransform="matrix(0.41, -0.37, 0.41, 0.37, 336.9, 449.76)" xlink:href="#Degradado_sin_nombre_9"/><linearGradient id="Degradado_sin_nombre_9-6" x1="447.82" y1="1105.83" x2="486.15" y2="1144.17" gradientTransform="matrix(0.68, -0.01, -0.01, 0.68, 226.62, 263.41)" xlink:href="#Degradado_sin_nombre_9"/></defs><title>cel</title><path class="cls-1" d="M456.29,146.3h0c31.16,28.42,35.7,84.77,9.72,120.52L353.9,421.1c-23.78,32.72-22.28,83.49,3.35,113.89L465.69,663.57c30.24,35.86,26,97.95-8.62,126.78L409.49,830c-43.05,35.83-36.8,117.83,10.88,142.65l87,45.27c23.11,12,49.65,6,68-15.32L767.5,779.23V-.5H493.93C431.6-.5,405.77,100.23,456.29,146.3Z" transform="translate(0.11 1)"/><rect class="cls-2" x="430.82" y="248.12" width="58" height="58" rx="11.23" transform="translate(330.74 -242.98) rotate(45)"/><rect class="cls-3" x="450.2" y="692.59" width="58" height="58" rx="11.23" transform="translate(650.7 -126.5) rotate(45)"/><rect class="cls-4" x="589.08" y="480.67" width="58" height="58" rx="29" transform="translate(541.53 -286.77) rotate(45)"/><rect class="cls-5" x="625.88" y="273.72" width="58" height="58" rx="11.23" transform="translate(405.97 -373.41) rotate(45)"/><rect class="cls-6" x="690.66" y="375.77" width="33.95" height="30.41" rx="5.21" transform="translate(483.83 -384.86) rotate(45)"/><path class="cls-7" d="M512.52,1024.16a11.19,11.19,0,0,1,3.28-7.45l12.12-12.12a11.23,11.23,0,0,1,15.89,0l11.62,11.62a11.19,11.19,0,0,1,3.29,8.19" transform="translate(0.11 1)"/><rect class="cls-8" x="7.25" y="958.99" width="58" height="58" rx="11.23" transform="translate(709.34 264.74) rotate(45)"/></svg>